<?xml version="1.0" standalone="no"?>
<!DOCTYPE svg PUBLIC "-//W3C//DTD SVG 1.1//EN" "http://www.w3.org/Graphics/SVG/1.1/DTD/svg11.dtd" >
<svg xmlns="http://www.w3.org/2000/svg">
<metadata>Generated by IcoMoon</metadata>
<defs>
<font id="IBR-font" horiz-adv-x="512">
<font-face units-per-em="512" ascent="480" descent="-32" />
<missing-glyph horiz-adv-x="512" />
<glyph unicode="&#x20;" d="" horiz-adv-x="256" />
<glyph unicode="&#xe600;" d="M1836.357 165.341c-6.887-5.016-13.599-14.202-20.124-27.497l-0.001 30.762h-67.442v-47.207c-0.611 1.322-1.245 2.613-1.91 3.873-8.098 15.409-20.005 27.256-35.595 35.353-15.533 8.158-36.803 12.268-63.696 12.268-33.178 0-59.164-9.127-78.019-27.317-8.032-7.745-14.351-16.529-18.954-26.341v120.923h-72.763v-89.923c-7.129 7.553-15.229 13.173-24.352 16.98-9.187 3.75-19.34 5.684-30.582 5.684-20.278 0-37.446-6.457-51.465-19.373l4.104 9.462c-12.63 6.584-24.233 9.911-34.87 9.911-10.149 0-18.671-2.539-25.562-7.556-6.888-5.017-13.599-14.202-20.124-27.498l0.002 30.76h-67.443v-50.714c-3.671 8.029-8.497 15.445-14.482 22.249-19.219 21.815-47.682 32.757-85.329 32.757-32.937 0-59.044-9.31-78.44-27.918-7.361-7.065-13.318-14.868-17.877-23.407-6.71 14.703-16.366 26.317-28.875 34.827-16.135 10.999-39.524 16.498-70.223 16.498-21.936 0-39.944-2.903-53.967-8.705-8.884-3.625-17.467-9.244-25.866-16.74-8.401-7.496-14.985-15.957-19.82-25.384l-0.447-0.882c-0.641 1.399-1.312 2.759-2.010 4.083-8.097 15.409-20.001 27.256-35.595 35.353-15.529 8.158-36.802 12.267-63.696 12.267-33.178 0-59.163-9.127-78.019-27.316-0.415-0.401-0.821-0.807-1.231-1.211l8.082 18.618c-12.63 6.584-24.232 9.911-34.869 9.911-10.153 0-18.674-2.54-25.562-7.556s-13.598-14.202-20.124-27.497l-0.001 30.765h-67.43v-188.003h72.397v63.029c0 30.098 3.746 50.642 11.178 61.641 5.197 7.733 12.51 11.663 21.937 11.663 3.76 0 8.572-1.007 14.374-3.057-4.64-11.822-6.962-25.029-6.962-39.608 0-20.666 4.716-38.615 14.083-53.904s21.211-26.471 35.474-33.482c14.321-7.007 33.904-10.514 58.799-10.514 28.707 0 50.703 4.111 66.055 12.268 13.492 7.225 25.212 18.56 35.239 34.044 4.989-8.56 11.345-16.164 19.066-22.868 9.55-8.339 20.972-14.32 34.268-18.069 13.233-3.687 29.852-5.558 49.797-5.558 20.667 0 37.71 2.901 51.066 8.639 13.414 5.805 24.413 13.899 33.054 24.355 4.123 5.026 7.706 10.496 10.724 16.406 5.527-9.716 12.96-18.452 22.309-26.197 18.671-15.349 43.088-23.022 73.302-23.022 33.903 0 60.434 9.248 79.59 27.677 8.612 8.313 15.295 17.678 20.040 28.094v-51.54l72.402-0.001v63.029c0 30.098 3.743 50.642 11.178 61.641 5.199 7.733 12.509 11.663 21.937 11.663 3.885 0 8.889-1.075 14.946-3.259-2.931-10.925-4.39-23.293-4.39-37.111 0-27.858 6.767-51.548 20.245-71.007 13.538-19.459 33.118-29.188 58.739-29.188 12.749 0 24.293 2.721 34.686 8.098 7.796 4.171 16.376 12.147 25.867 23.931v-27.798h67.443v48.726c1.441-3.081 3.042-6.072 4.814-8.964 9.364-15.288 21.21-26.471 35.474-33.482 14.321-7.007 33.903-10.514 58.797-10.514 28.707 0 50.706 4.111 66.054 12.268 12.515 6.704 23.506 16.945 33.034 30.75v-38.788h72.401v63.029c0 30.097 3.743 50.642 11.178 61.641 5.199 7.733 12.509 11.663 21.936 11.663 4.956 0 11.724-1.752 20.185-5.32l22.3 51.368c-12.629 6.584-24.236 9.911-34.87 9.911-10.16 0.016-18.681-2.525-25.572-7.541zM1929.803 266.343c-17.659 0-31.984-14.323-31.984-31.986 0-17.659 14.323-31.986 31.984-31.986 17.663 0 31.99 14.327 31.99 31.986 0 17.663-14.326 31.986-31.99 31.986zM1936.317 230.623c-0.611 0.56-1.567 1.089-2.885 1.585 3.174 0.761 5.501 1.974 6.993 3.649 1.483 1.677 2.212 3.666 2.212 5.955 0 2.934-0.973 5.278-2.901 7.026-1.944 1.746-5.079 2.618-9.41 2.618l-15.286 0.002v-34.198h8.492v13.45c0.457 0.084 0.803 0.13 1.059 0.13 1.117 0 2.23-0.643 3.345-1.92 1.117-1.258 3.304-5.152 6.581-11.661h10.052c-3.63 6.481-5.476 9.774-5.531 9.887-0.945 1.529-1.863 2.688-2.72 3.476zM1932.414 238.148c-0.998-0.803-2.732-1.197-5.191-1.197h-3.691v8.555h4.035c2.316 0 3.945-0.401 4.919-1.189 0.957-0.803 1.44-1.832 1.44-3.089s-0.495-2.279-1.514-3.078zM1929.803 208.512c-14.269 0-25.841 11.577-25.841 25.845 0 14.272 11.573 25.845 25.841 25.845 14.272 0 25.849-11.573 25.849-25.845 0-14.269-11.576-25.845-25.849-25.845zM511.784 315.455h31.699v-39.178c3.132 3.292 6.713 5.739 10.688 7.395 3.975 1.635 8.401 2.477 13.242 2.477 9.953 0 18.221-3.608 24.75-10.769 6.529-7.189 9.794-17.483 9.794-30.885 0-8.952-1.501-16.851-4.475-23.642-2.976-6.822-7.107-11.901-12.375-15.272-5.266-3.37-11.109-5.055-17.561-5.055-5.503 0-10.532 1.185-15.111 3.53-3.448 1.868-7.188 5.341-11.269 10.426v-12.111l-29.383-0.002v113.085zM351.77-36.458l86.12 236.609c-2.657-0.214-5.395-0.322-8.224-0.322-18.18 0-32.871 4.616-44.103 13.853-13.782 11.416-20.654 26.395-20.654 44.941 0 17.239 5.82 31.49 17.453 42.65 11.672 11.2 27.378 16.8 47.197 16.8 19.387 0 34.728-4.821 45.994-14.444l15.891 43.661-351.769 128.029-42.505-116.784h18.715v-29.525h-29.462l-4.924-13.526h34.381v-113.115h-43.374v88.401l-72.504-199.197c117.257-42.678 234.516-85.355 351.769-128.032v0zM293.864 202.371v81.375h-16.18v31.739h16.18v5.128c0 4.618 0.508 9.71 1.49 15.236 1.017 5.527 2.874 10.072 5.6 13.562 2.726 3.527 6.584 6.361 11.489 8.543 4.947 2.144 12.18 3.238 21.707 3.238 7.598 0 18.618-0.873 33.123-2.654l-4.8-26.216c-5.2 0.873-9.382 1.273-12.581 1.273-3.891 0-6.69-0.653-8.399-1.965-1.709-1.308-2.91-3.382-3.635-6.216-0.363-1.565-0.509-4.872-0.509-9.928h20.651v-31.739h-20.651v-81.375l-43.486-0.001zM143.551 202.371v113.115h40.394v-18.398c6.036 7.526 12.145 12.87 18.325 16.108s13.707 4.872 22.579 4.872c11.997 0 21.376-3.598 28.178-10.725 6.764-7.125 10.144-18.142 10.144-33.048v-71.92h-43.555v62.209c0 7.090-1.309 12.106-3.927 15.051-2.655 2.982-6.328 4.439-11.092 4.439-5.236 0-9.527-2-12.762-5.961-3.27-3.964-4.907-11.125-4.907-21.416v-54.322l-43.376-0.005zM408.359 258.731v0c0-10.11 2.037-17.564 6.144-22.362 4.072-4.835 9.199-7.272 15.38-7.272 6.253 0 11.381 2.402 15.38 7.165 4.036 4.763 6.036 12.362 6.036 22.905 0 9.782-2.037 17.089-6.072 21.888-4.035 4.764-9.055 7.165-15.015 7.165-6.329 0-11.565-2.44-15.672-7.273-4.108-4.871-6.181-12.288-6.181-22.216zM543.27 243.553c0-7.032 1.315-12.139 3.951-15.298 2.66-3.159 6.003-4.739 10.083-4.739 3.74 0 6.896 1.556 9.452 4.661 2.528 3.106 3.819 8.344 3.819 15.692 0 6.476-1.264 11.242-3.74 14.27-2.503 3.029-5.527 4.558-9.085 4.558-4.264 0-7.74-1.579-10.454-4.743-2.684-3.161-4.026-7.953-4.026-14.401v0zM613.15 243.101c0 12.478 4.212 22.799 12.639 30.885 8.452 8.11 19.827 12.166 34.174 12.166 16.402 0 28.807-4.767 37.177-14.272 6.741-7.661 10.11-17.116 10.11-28.327 0-12.588-4.185-22.909-12.533-30.964-8.345-8.031-19.905-12.061-34.674-12.061-13.165 0-23.802 3.344-31.938 10.032-9.982 8.269-14.955 19.115-14.955 32.541v0zM644.613 243.183c0-7.321 1.474-12.72 4.451-16.191 2.949-3.502 6.662-5.266 11.14-5.266 4.528 0 8.242 1.736 11.136 5.187 2.921 3.448 4.369 8.952 4.369 16.589 0 7.083-1.474 12.373-4.396 15.849-2.925 3.448-6.557 5.187-10.875 5.187-4.58 0-8.374-1.762-11.346-5.263-2.976-3.535-4.477-8.906-4.477-16.092v0zM750.983 257.768l-29.988 3.159c1.134 5.238 2.766 9.373 4.898 12.373 2.13 3.004 5.187 5.609 9.217 7.821 2.87 1.607 6.845 2.843 11.874 3.713 5.028 0.867 10.478 1.319 16.351 1.319 9.401 0 16.984-0.527 22.668-1.58 5.713-1.053 10.48-3.265 14.271-6.607 2.688-2.317 4.794-5.579 6.343-9.822 1.529-4.264 2.293-8.293 2.293-12.166v-36.173c0-3.843 0.261-6.873 0.737-9.060 0.499-2.185 1.553-4.974 3.211-8.372h-29.46c-1.188 2.106-1.95 3.71-2.32 4.821-0.367 1.104-0.71 2.844-1.077 5.212-4.108-3.974-8.215-6.794-12.271-8.476-5.554-2.265-12.006-3.397-19.351-3.397-9.767 0-17.191 2.265-22.273 6.791-5.056 4.505-7.583 10.087-7.583 16.721 0 6.24 1.817 11.346 5.476 15.352 3.659 4.030 10.375 7.002 20.193 8.952 11.796 2.371 19.433 4.029 22.933 4.976 3.476 0.945 7.188 2.209 11.088 3.737 0 3.87-0.795 6.556-2.371 8.11-1.607 1.525-4.397 2.317-8.425 2.317-5.136 0-8.976-0.843-11.558-2.474-2.004-1.298-3.639-3.721-4.875-7.25v0zM778.209 241.26c-4.321-1.556-8.823-2.922-13.48-4.108-6.37-1.685-10.427-3.37-12.111-5-1.763-1.712-2.633-3.635-2.633-5.793 0-2.477 0.87-4.477 2.582-6.057 1.736-1.555 4.264-2.344 7.61-2.344 3.499 0 6.74 0.842 9.766 2.528 3 1.712 5.134 3.794 6.397 6.214 1.264 2.447 1.872 5.636 1.872 9.533v5.027h-0.004zM828.052 284.282h0.004v-81.911l31.54 0.001v27.461c0 13.116 1.63 22.065 4.869 26.859 2.265 3.368 5.452 5.079 9.56 5.079 2.16 0 5.106-0.764 8.793-2.32l9.716 22.382c-5.504 2.873-10.558 4.321-15.193 4.321-4.423 0-8.136-1.108-11.136-3.293-3.004-2.185-5.925-6.187-8.768-11.979v13.399h-29.383zM988.025 315.456v-113.084l-29.384-0.001v12.111c-4.135-5.136-7.872-8.61-11.269-10.426-4.529-2.344-9.557-3.53-15.111-3.53-11.163 0-19.694 4.236-25.592 12.716-5.871 8.48-8.823 18.8-8.823 30.936 0 13.589 3.241 23.962 9.77 31.15 6.504 7.213 14.769 10.823 24.774 10.823 4.896 0 9.322-0.843 13.324-2.477 3.975-1.658 7.501-4.105 10.61-7.397v39.178l31.702-0zM956.535 243.553c0 6.452-1.342 11.238-4.081 14.398-2.707 3.163-6.159 4.743-10.321 4.743-3.663 0-6.713-1.529-9.189-4.558-2.473-3.028-3.71-8.107-3.71-15.272 0-6.686 1.29-11.584 3.818-14.69 2.554-3.106 5.712-4.661 9.452-4.661 4.029 0 7.372 1.556 10.032 4.688 2.679 3.159 3.997 8.265 3.997 15.352zM706.47 116.574c6.89 9.067 16.014 13.656 27.497 13.656 9.912 0 17.889-3.021 23.995-9.063 6.043-5.983 9.789-15.957 11.239-29.913l-71.009-0c1.146 11.242 3.927 19.643 8.279 25.322zM767.385 35.835c-4.472-5.681-8.642-9.608-12.572-11.844-6.343-3.568-13.115-5.32-20.184-5.32-11.178 0-20.305 4.050-27.256 12.208-4.956 5.681-8.097 14.26-9.366 25.866h125.639c1.149-10.447 3.437-19.351 6.858-26.711l-63.118 5.801zM1023.337 48.207l-51.652 5.88c-3.201-10.033-8.037-17.464-14.443-22.298-6.466-4.836-14.384-7.252-23.811-7.252-11.359 0-20.667 3.988-27.981 12.024-7.312 8.041-10.999 19.76-10.999 35.233 0 17.345 3.689 30.277 11.061 38.857 7.372 8.522 17.040 12.813 28.944 12.813 9.487 0 16.982-1.995 22.605-6.103 5.62-4.050 9.487-10.092 11.601-18.127l56.501 7.502c-3.235-10.045-4.85-20.93-4.85-32.646 0-9.153 1.008-17.777 3.024-25.884zM1153.867 36.926c-6.648-7.916-15.169-11.908-25.562-11.908-10.276 0-18.794 4.050-25.562 12.087-6.831 7.977-10.216 20.369-10.216 37.167 0 16.495 3.445 28.827 10.273 36.925 6.831 8.041 15.534 12.091 26.046 12.091 9.911 0 18.246-3.99 24.957-11.908 6.708-7.977 10.092-20.125 10.092-36.38 0.004-17.529-3.325-30.161-10.030-38.075zM1469.159 39.884c-6.103-7.192-13.778-10.754-23.026-10.754-8.582 0-15.833 3.565-21.695 10.697-5.802 7.132-8.763 18.37-8.763 33.719 0 16.438 2.841 28.101 8.522 35.050s12.692 10.456 21.093 10.456c9.547 0 17.465-3.625 23.688-10.878 6.285-7.252 9.367-18.25 9.367-33.054 0.002-16.259-3.024-27.984-9.186-35.237zM1623.118 116.574c6.887 9.067 16.014 13.656 27.497 13.656 9.911 0 17.888-3.021 23.991-9.063 6.044-5.983 9.792-15.957 11.242-29.913l-71.011-0c1.149 11.242 3.929 19.643 8.281 25.322zM1748.795 29.886l-64.758 5.952c-4.472-5.681-8.642-9.608-12.571-11.844-6.343-3.569-13.114-5.32-20.185-5.32-11.178 0-20.305 4.050-27.256 12.208-4.953 5.681-8.094 14.26-9.364 25.866h134.136v-26.861z" horiz-adv-x="1974" />
<glyph unicode="&#xe601;" d="M139.732 475.429l351.922-128.089-139.732-383.912-351.921 128.089 139.732 383.912z" />
<glyph unicode="&#xe602;" d="M425.483 332.423c0-27.698-22.602-50.3-50.373-50.3-27.698 0-50.3 22.602-50.3 50.3 0 27.713 22.602 50.314 50.3 50.314 27.771 0 50.373-22.601 50.373-50.314zM145.197 391.512l91.71-45.579c-0.42-4.387-0.623-8.803-0.637-13.291-0.203-8.151 0.97-17.071 1.795-24.528 1.535-9.165 4.155-18.316 8.326-27.191l27.902-59.19v-22.529l8.253 5.024 15.478-32.839-23.731-14.421v-109.88l100.962 50.199 94.013 199.983c5.082 10.801 6.515 23.18 6.515 35.155 0 55.599-45.015 100.614-100.673 100.614-55.585 0-100.615-45.015-100.615-100.614 0-11.974 1.419-24.339 6.515-35.155l94.245-199.983c33.62-16.738 67.299-33.475 100.948-50.184v109.852l-23.833 14.493 15.449 32.853 8.384-5.096v22.949l27.698 58.915c4.185 8.963 6.805 18.055 8.311 27.047l0.188 1.564v-291.678c0-6.443-3.084-11.988-8.572-15.391-5.473-3.402-11.815-3.692-17.592-0.811-34.301 17.041-68.645 34.142-102.947 51.169-5.241 2.606-10.859 2.606-16.101 0l-102.961-51.169c-5.241-2.606-10.874-2.606-16.115 0l-102.918 51.154c-5.242 2.606-10.874 2.606-16.115 0l-102.932-51.154c-5.777-2.866-12.119-2.577-17.592 0.825-5.487 3.402-8.557 8.948-8.557 15.392v298.151c0 7.036 3.736 13.075 10.034 16.202l119.047 59.147c5.241 2.606 10.874 2.606 16.115 0zM238.095 47.087v109.866l-82.85 50.387v-119.075l82.85-41.178zM238.095 199.204v105.827l-82.85 41.163v-96.603l82.85-50.387zM119.048 88.266v119.075l-82.85-50.387v-109.852l82.85 41.163zM119.048 249.59v96.603l-82.85-41.163v-105.827l82.85 50.387z" horiz-adv-x="549" />
<glyph unicode="&#xe603;" d="M146.214-36.571l133.127 283.171c7.2 15.303 9.233 32.834 9.233 49.784 0 78.727-63.746 142.474-142.554 142.474-78.711 0-142.474-63.747-142.474-142.474 0-16.95 2.002-34.464 9.217-49.784l133.45-283.171zM217.339 296.383c0-39.21-31.994-71.221-71.317-71.221-39.226 0-71.237 32.010-71.237 71.221 0 39.243 32.011 71.252 71.237 71.252 39.323 0 71.317-32.011 71.317-71.252z" horiz-adv-x="329" />
<glyph unicode="&#xe604;" d="M57.073 438.857h251.283c31.469 0 57.216-25.752 57.216-57.216v-269.568c0-31.464-25.752-57.216-57.216-57.216h-52.499l-37.853-44.424-35.29-47.005-35.29 47.005-37.852 44.424h-52.499c-31.464 0-57.215 25.747-57.215 57.216v269.568c0 31.469 25.747 57.215 57.215 57.215z" horiz-adv-x="402" />
<glyph unicode="&#xe605;" d="M18.311 402.285c-7.101 0-13.184-3.76-16.358-10.113s-2.528-13.475 1.736-19.152l142.791-190.163 0.070-164.514c0.002-8.019 3.754-13.651 11.177-16.894 2.475-0.938 4.863-1.45 7.082-1.45 5.205 0 9.471 1.877 12.884 5.461l73.12 73.119c3.668 3.668 5.464 7.935 5.46 12.884l-0.070 91.394 13.751 18.357h112.413c6.45-0.572 13.004 2.305 16.849 8.072l73.029 109.543c2.009 2.936 3.185 6.488 3.185 10.314 0 10.099-8.187 18.286-18.286 18.286h-77.663l19.183 25.608c4.255 5.68 4.894 12.798 1.718 19.145s-9.256 10.103-16.353 10.103c-121.905 0-243.81 0-365.715 0zM297.241 237.643l54.844 73.214h70.892l-48.81-73.214h-76.925z" horiz-adv-x="475" />
<glyph unicode="&#xe606;" d="M163.497 390.837c-7.595 7.51-11.392 16.683-11.392 27.435 0 10.795 3.797 19.969 11.392 27.478 7.51 7.595 16.683 11.392 27.478 11.392 10.667 0 19.798-3.797 27.393-11.392 7.637-7.51 11.435-16.683 11.435-27.478 0-10.752-3.798-19.926-11.435-27.435-7.595-7.595-16.726-11.392-27.393-11.392-10.795 0-19.969 3.797-27.478 11.392zM270.889 378.861c-7.595 7.51-11.392 16.683-11.392 27.435 0 10.795 3.797 19.969 11.392 27.478 7.51 7.595 16.683 11.392 27.478 11.392 10.667 0 19.798-3.797 27.393-11.392 7.637-7.51 11.435-16.683 11.435-27.478 0-10.752-3.798-19.926-11.435-27.435-7.595-7.595-16.726-11.392-27.393-11.392-10.795 0-19.969 3.797-27.478 11.392zM354.757 310.728c-7.595 7.51-11.392 16.683-11.392 27.435 0 10.795 3.797 19.969 11.392 27.478 7.51 7.595 16.683 11.392 27.478 11.392 10.667 0 19.798-3.797 27.393-11.392 7.637-7.51 11.435-16.683 11.435-27.478 0-10.752-3.798-19.926-11.435-27.435-7.595-7.595-16.726-11.392-27.393-11.392-10.795 0-19.969 3.797-27.478 11.392zM388.478 208.063c-7.595 7.51-11.392 16.683-11.392 27.435 0 10.795 3.797 19.969 11.392 27.478 7.51 7.595 16.683 11.392 27.478 11.392 10.667 0 19.798-3.797 27.393-11.392 7.637-7.51 11.435-16.683 11.435-27.478 0-10.752-3.798-19.926-11.435-27.435-7.595-7.595-16.726-11.392-27.393-11.392-10.795 0-19.969 3.797-27.478 11.392zM361.334 103.471c-7.595 7.51-11.392 16.683-11.392 27.435 0 10.795 3.797 19.969 11.392 27.478 7.51 7.595 16.683 11.392 27.478 11.392 10.667 0 19.798-3.797 27.393-11.392 7.637-7.51 11.435-16.683 11.435-27.478 0-10.752-3.798-19.926-11.435-27.435-7.595-7.595-16.726-11.392-27.393-11.392-10.795 0-19.969 3.797-27.478 11.392zM281.961 30.154c-7.595 7.51-11.392 16.683-11.392 27.435 0 10.795 3.797 19.969 11.392 27.478 7.51 7.595 16.683 11.392 27.478 11.392 10.667 0 19.798-3.797 27.393-11.392 7.637-7.51 11.435-16.683 11.435-27.478 0-10.752-3.798-19.926-11.435-27.435-7.595-7.595-16.726-11.392-27.393-11.392-10.795 0-19.969 3.797-27.478 11.392zM75.881 53.138c-7.595 7.51-11.392 16.683-11.392 27.435 0 10.795 3.797 19.969 11.392 27.478 7.51 7.595 16.683 11.392 27.478 11.392 10.667 0 19.798-3.797 27.393-11.392 7.637-7.51 11.435-16.683 11.435-27.478 0-10.752-3.798-19.926-11.435-27.435-7.595-7.595-16.725-11.392-27.393-11.392-10.795 0-19.969 3.797-27.478 11.392zM14.605 142.142c-7.595 7.51-11.392 16.683-11.392 27.435 0 10.795 3.797 19.969 11.392 27.478 7.509 7.595 16.683 11.392 27.478 11.392 10.667 0 19.798-3.797 27.393-11.392 7.638-7.51 11.435-16.683 11.435-27.478 0-10.752-3.797-19.926-11.435-27.435-7.595-7.595-16.725-11.392-27.393-11.392-10.795 0-19.968 3.797-27.478 11.392zM11.178 250.144c-7.595 7.51-11.392 16.683-11.392 27.435 0 10.795 3.797 19.969 11.392 27.478 7.51 7.595 16.683 11.392 27.478 11.392 10.667 0 19.798-3.797 27.393-11.392 7.638-7.51 11.435-16.683 11.435-27.478 0-10.752-3.797-19.926-11.435-27.435-7.595-7.595-16.725-11.392-27.393-11.392-10.795 0-19.968 3.797-27.478 11.392zM66.683 342.855c-7.595 7.51-11.392 16.683-11.392 27.435 0 10.795 3.797 19.969 11.392 27.478 7.51 7.595 16.683 11.392 27.478 11.392 10.667 0 19.798-3.797 27.393-11.392 7.637-7.51 11.435-16.683 11.435-27.478 0-10.752-3.798-19.926-11.435-27.435-7.595-7.595-16.725-11.392-27.393-11.392-10.795 0-19.969 3.797-27.478 11.392zM175.544 11.392c-7.595 7.51-11.392 16.683-11.392 27.435 0 10.795 3.797 19.969 11.392 27.478 7.51 7.595 16.683 11.392 27.478 11.392 10.667 0 19.798-3.797 27.393-11.392 7.637-7.51 11.435-16.683 11.435-27.478 0-10.752-3.798-19.926-11.435-27.435-7.595-7.595-16.726-11.392-27.393-11.392-10.795 0-19.969 3.797-27.478 11.392z" horiz-adv-x="475" />
<glyph unicode="&#xe607;" d="M30.717 329.227c-16.925 0-30.717-13.807-30.717-30.725v-267.949c0-16.918 13.806-30.725 30.717-30.725h450.967c16.91 0 30.717 13.822 30.717 30.725v267.949c0 16.903-13.791 30.725-30.717 30.725-134.592 0-316.377 0-450.967 0zM128.1 219.427h36.6v-36.598h36.6v-36.6h-36.6v-36.6h-36.6v36.6h-36.6v36.6h36.6v36.598zM311.1 182.828h109.8v-36.6h-109.8v36.6zM183 384.128c10.147 0 18.506-8.284 18.432-18.432l-0.132-18.168h-109.8l0.132 18.168c0.073 10.147 8.285 18.432 18.432 18.432h72.936zM402.601 384.128c10.147 0 18.505-8.284 18.432-18.432l-0.132-18.168h-109.8l0.132 18.168c0.074 10.147 8.285 18.432 18.432 18.432h72.936z" horiz-adv-x="549" />
<glyph unicode="&#xe608;" d="M0 77.087l180.885 361.77 48.501-100.318c27.117-56.080 55.963-107.135 92.85-147.744 34.798-38.316 77.85-68.221 135.533-85.577l-31.351-105.219c-78.988 23.764-137.857 64.625-185.353 116.928-22.107 24.346-41.465 50.921-59.127 79.248l-84.022-168.045-97.915 48.957z" />
<glyph unicode="&#xe609;" d="M219.214 438.857h0.002v-0.143c60.676-0 115.525-24.512 155.149-64.136 39.621-39.623 64.133-94.471 64.135-155.145h0.143v-0.008h-0.143c-0-60.676-24.512-115.525-64.136-155.149-39.623-39.622-94.47-64.133-155.144-64.135v-0.143h-0.008v0.143c-60.676 0-115.525 24.512-155.149 64.136-39.622 39.623-64.133 94.47-64.135 155.144h-0.143v0.008h0.143c0.001 60.676 24.513 115.526 64.136 155.149s94.471 64.133 155.145 64.135v0.143h0.006zM219.214 274.286c30.291 0 54.857-24.566 54.857-54.858s-24.566-54.857-54.857-54.857c-30.292 0-54.858 24.566-54.858 54.857s24.566 54.858 54.858 54.858zM219.217 365.857v-0.143h-0.008v0.143c-40.292-0.001-76.87-16.432-103.43-42.992s-42.993-63.14-42.993-103.434h0.143v-0.008h-0.143c0.001-40.293 16.432-76.869 42.992-103.43 26.561-26.562 63.141-42.993 103.434-42.993v0.143h0.008v-0.143c40.292 0.001 76.869 16.432 103.429 42.991 26.562 26.561 42.993 63.14 42.993 103.435h-0.143v0.008h0.143c-0.001 40.293-16.432 76.87-42.992 103.43-26.561 26.562-63.14 42.993-103.435 42.993z" horiz-adv-x="475" />
<glyph unicode="&#xe60a;" d="M73.358 393.141v-347.426c0-5.036-4.108-9.143-9.143-9.143h-54.857c-5.036 0-9.143 4.107-9.143 9.143v347.426c0 5.036 4.107 9.143 9.143 9.143h54.857c5.035 0 9.143-4.107 9.143-9.143zM256.213 393.141v-347.426c0-5.036-4.107-9.143-9.143-9.143h-54.857c-5.036 0-9.143 4.107-9.143 9.143v347.426c0 5.036 4.107 9.143 9.143 9.143h54.857c5.036 0 9.143-4.107 9.143-9.143z" horiz-adv-x="293" />
<glyph unicode="&#xe60b;" d="M0.001 45.713c0 115.808 0 231.619 0 347.429 0 5.036 4.106 9.143 9.143 9.143h54.858c5.035 0 9.143-4.107 9.143-9.143v-137.286h393.143c5.036 0 9.143-4.107 9.143-9.143v-201c0-5.036-4.107-9.143-9.143-9.143h-54.858c-5.036 0-9.143 4.107-9.143 9.143v137.286h-329.142v-137.286c0-5.036-4.108-9.143-9.143-9.143h-54.857c-5.036-0-9.143 4.108-9.143 9.143z" />
<glyph unicode="&#xe60c;" d="M6.463 299.143l53.633-53.634c3.56-3.56 9.367-3.56 12.927 0l46.076 46.077 99.176-99.174-141.746-141.753c-3.559-3.56-3.559-9.367 0.001-12.926l38.775-38.774c3.56-3.56 9.368-3.56 12.927 0l141.746 141.753 141.766-141.763c3.56-3.56 9.366-3.56 12.926 0l38.775 38.775c3.56 3.56 3.56 9.367-0 12.926l-141.767 141.765 99.165 99.169 46.074-46.075c3.56-3.559 9.366-3.559 12.926 0l53.635 53.634c3.56 3.56 3.559 9.366 0 12.926l-123.512 123.513c-2.096 2.095-4.797 3-7.732 2.589l-94.084-13.185c-3.519-0.493-6.271-2.781-7.399-6.15s-0.308-6.853 2.204-9.365l66.187-66.187-99.166-99.171-99.174 99.173 66.184 66.184c2.512 2.512 3.332 5.997 2.204 9.365s-3.881 5.657-7.399 6.15l-94.084 13.184c-2.935 0.411-5.637-0.493-7.732-2.589l-123.512-123.513c-3.56-3.56-3.56-9.367 0-12.927z" horiz-adv-x="585" />
<glyph unicode="&#xe60d;" d="M438.177 429.714v-420.105c0-5.036-4.107-9.143-9.143-9.143h-420.106c-5.036 0-9.143 4.107-9.143 9.143v420.106c0 5.036 4.107 9.143 9.143 9.143h420.106c5.036 0 9.143-4.107 9.143-9.143zM72.642 125.038l240.963 240.963h-240.963v-240.963zM365.32 314.287l-240.963-240.963h240.963v240.963z" horiz-adv-x="475" />
<glyph unicode="&#xe60e;" d="M112.573 119.445c3.45 53.656 35.252 85.882 66.13 117.172 20.561 20.836 40.655 41.055 40.655 63.272v0c-0 19.298-7.752 35.54-20.281 46.916-13.281 12.058-32.011 19.052-52.998 19.053h-0.010c-20.989-0-39.72-6.995-53.002-19.053-12.177-11.055-19.84-26.709-20.262-45.296-0.112-4.962-4.177-8.936-9.14-8.936h-54.581c-2.538 0-4.723 0.913-6.506 2.72s-2.668 4.002-2.635 6.541c0.52 40.435 17.23 74.683 43.981 98.971 26.427 23.995 62.554 37.91 102.146 37.911h0.010c39.589-0.002 75.714-13.916 102.142-37.91 27.179-24.676 44.137-59.636 44.138-100.919v0c0-51.936-30.361-82.702-61.654-114.411-20.407-20.678-41.402-41.954-45.032-67.884-0.637-4.546-4.464-7.875-9.053-7.875h-54.92c-2.621 0-4.877 0.977-6.67 2.889s-2.623 4.226-2.454 6.841zM118.643 0.001h54.857c5.036 0 9.143 4.107 9.143 9.143v54.857c0 5.036-4.107 9.143-9.143 9.143h-54.857c-5.036 0-9.143-4.108-9.143-9.143v-54.857c0-5.036 4.107-9.143 9.143-9.143z" horiz-adv-x="329" />
<glyph unicode="&#xe60f;" d="M292.354 109.787l-91.361-0.014c0-40.344-32.731-73.074-73.088-73.074-40.344 0-73.074 32.716-73.089 73.060l-36.602-0.014v0.043c-10.065 0.029-18.215 8.194-18.215 18.272s8.15 18.243 18.215 18.272l0.029 182.895c0 5.032 1.799 9.354 5.351 12.906l36.443 36.501c3.568 3.567 7.903 5.351 12.936 5.351l91.477-0.029v36.472c0 10.064 8.208 18.272 18.272 18.272h18.272c0-73.089 0-164.464 0-237.552h36.544v219.266c0 10.065 8.208 18.272 18.273 18.272h365.443c10.064 0 18.273-8.237 18.273-18.272v-182.78l-91.274 0.072c-3.408 0-6.7-0.464-9.977-1.378l-0.13-0.072c-3.292-0.957-6.381-2.334-9.208-4.103l-137.303-85.806h-62.952l-0.217-0.072c-9.861-0.116-18.809-4.176-25.291-10.601-6.584-6.555-10.688-15.676-10.746-25.697l-0.072-0.072v-0.116zM735.223 128.074l-27.553 45.956c-3.393 5.656-9.078 8.875-15.676 8.875-17.504 0-34.992-0.014-52.467-0.014v-54.817h95.697zM728.233 210.574l54.875-91.463c1.784-2.973 2.596-5.931 2.596-9.397v-54.729c0-10.065-8.208-18.272-18.272-18.272v0c0-40.358-32.731-73.089-73.089-73.089-40.343 0-73.074 32.716-73.089 73.060l-146.177-0.029c-0.014-40.329-32.745-73.045-73.089-73.045-40.329 0-73.031 32.673-73.089 72.987l-17.822-0.014c-10.079 0-18.272 8.193-18.272 18.272 0 9.919 7.962 18.011 17.823 18.272v36.675c0 10.065 8.208 18.272 18.272 18.272 16.546 0 51.38 0 67.911 0l141.755 88.591c3.030 1.899 6.106 2.77 9.687 2.77 60.835 0 103.441 0 164.304 0 6.598 0 12.283-3.204 15.676-8.86zM548.905 180.121l-83.269-52.046h137.346v54.817c-20.868 0-23.522 0.014-44.39 0.014-3.567 0-6.7-0.928-9.687-2.784zM730.886 36.713c-0.014 20.172-16.372 36.53-36.544 36.53s-36.53-16.358-36.544-36.53v-0.014c0.014-20.172 16.372-36.53 36.544-36.53s36.544 16.373 36.544 36.544zM438.533 36.656v0.043c0 20.171-16.373 36.544-36.544 36.544-20.143 0-36.501-16.329-36.544-36.544v-0.072c0.043-20.143 16.401-36.471 36.544-36.471 20.158 0 36.515 16.344 36.544 36.501zM164.45 109.787c0 20.172-16.373 36.545-36.544 36.545s-36.544-16.373-36.544-36.544c0-20.171 16.373-36.544 36.544-36.544s36.53 16.358 36.544 36.53zM164.45 256.124v91.434l-76.338 0.014c-5.032 0-9.368-1.784-12.936-5.351l-15.009-15.038c-3.553-3.553-5.352-7.875-5.352-12.906v-58.311l109.633 0.159z" horiz-adv-x="804" />
<glyph unicode="&#xe610;" d="M621.319 73.192h-18.274c0-40.363-32.734-73.096-73.096-73.096s-73.096 32.733-73.096 73.096c0-40.363-32.734-73.096-73.096-73.096s-73.096 32.733-73.096 73.096l-109.645-0.014c0-40.348-32.733-73.082-73.097-73.082-40.348 0-73.082 32.719-73.096 73.067l-36.606-0.014v0.043c-10.065 0.029-18.216 8.195-18.216 18.274s8.151 18.245 18.216 18.274l0.029 182.915c0 5.033 1.798 9.355 5.351 12.908l36.447 36.505c3.568 3.568 7.904 5.351 12.936 5.351l91.487-0.029v36.476c0 10.065 8.209 18.274 18.274 18.274h18.274c0-73.096 0-164.481 0-237.578h36.548v219.289c0 10.065 8.209 18.274 18.274 18.274h365.482c10.065 0 18.274-8.238 18.274-18.274v-292.385c0-10.051-8.223-18.274-18.274-18.274zM566.496 73.192c0 20.174-16.374 36.548-36.548 36.548s-36.548-16.374-36.548-36.548c0-20.175 16.374-36.548 36.548-36.548s36.548 16.374 36.548 36.548zM420.303 73.192c0 20.174-16.375 36.548-36.548 36.548s-36.548-16.374-36.548-36.548c0-20.175 16.375-36.548 36.548-36.548s36.548 16.374 36.548 36.548zM164.466 73.192c0 20.174-16.374 36.548-36.548 36.548s-36.548-16.374-36.548-36.548c0-20.174 16.374-36.548 36.548-36.548s36.534 16.36 36.548 36.534zM164.466 219.544v91.443l-76.345 0.014c-5.032 0-9.369-1.784-12.936-5.351l-15.011-15.040c-3.553-3.553-5.352-7.875-5.352-12.908v-58.317l109.644 0.159z" horiz-adv-x="658" />
<glyph unicode="&#xe611;" d="M255.88 347.361h18.277v-54.832h328.99v18.277h36.554c0-73.094 0-146.217 0-219.325 0-10.067-8.225-18.277-18.277-18.277h-18.278c0-40.37-32.739-73.108-73.108-73.108s-73.108 32.739-73.108 73.108c0-40.37-32.739-73.108-73.108-73.108s-73.108 32.739-73.108 73.108l-109.662-0.014c0-40.355-32.739-73.094-73.109-73.094-40.355 0-73.094 32.725-73.108 73.079l-36.612-0.014v0.043c-10.066 0.029-18.219 8.196-18.219 18.277s8.152 18.248 18.219 18.277l0.029 182.945c0 5.034 1.799 9.357 5.352 12.91l36.453 36.511c3.568 3.568 7.906 5.353 12.939 5.353l91.502-0.029v36.481c0 10.067 8.21 18.277 18.277 18.277h18.277c0-73.109 0-164.509 0-237.618h36.554v164.494c0 10.067 8.21 18.278 18.277 18.278zM566.591 73.204c0 20.177-16.377 36.554-36.554 36.554s-36.555-16.377-36.555-36.554c0-20.178 16.377-36.555 36.555-36.555s36.554 16.377 36.554 36.555zM420.375 73.204c0 20.177-16.377 36.554-36.554 36.554s-36.554-16.377-36.554-36.554c0-20.178 16.377-36.555 36.554-36.555s36.554 16.377 36.554 36.555zM164.494 73.204c0 20.178-16.377 36.554-36.554 36.554s-36.554-16.377-36.554-36.554c0-20.178 16.377-36.555 36.554-36.555s36.54 16.363 36.554 36.54zM164.494 219.581v91.458l-76.358 0.014c-5.034 0-9.37-1.785-12.939-5.353l-15.014-15.042c-3.554-3.554-5.352-7.877-5.352-12.91v-58.327l109.662 0.159z" horiz-adv-x="658" />
<glyph unicode="&#xe612;" d="M443.546 164.534l-27.594 46.024c-3.399 5.664-9.091 8.888-15.699 8.888-17.529 0-35.044-0.014-52.545-0.014v-54.897h95.837zM436.546 247.156l54.955-91.597c1.786-2.977 2.599-5.94 2.599-9.411v-54.81c0-10.079-8.22-18.299-18.299-18.299v0c0-40.418-32.778-73.195-73.195-73.195-40.403 0-73.182 32.764-73.196 73.167l-146.392-0.029c-0.014-40.388-32.793-73.152-73.195-73.152-40.389 0-73.138 32.721-73.196 73.094l-17.849-0.014c-10.094 0-18.299 8.206-18.299 18.299 0 9.934 7.973 18.038 17.849 18.299v36.729c0 10.079 8.22 18.299 18.299 18.299 16.57 0 51.455 0 68.011 0l141.962 88.721c3.036 1.902 6.114 2.774 9.702 2.774 60.924 0 103.593 0 164.546 0 6.608 0 12.301-3.21 15.7-8.874zM256.954 216.657l-83.391-52.123h137.548v54.897c-20.899 0-23.556 0.014-44.454 0.014-3.572 0-6.709-0.93-9.702-2.788zM439.204 73.039c-0.014 20.202-16.397 36.584-36.598 36.584s-36.584-16.382-36.598-36.584v-0.014c0.014-20.202 16.397-36.584 36.598-36.584s36.598 16.397 36.598 36.598zM146.422 72.981v0.044c0 20.202-16.397 36.598-36.598 36.598-20.172 0-36.555-16.353-36.598-36.598v-0.073c0.043-20.173 16.425-36.526 36.598-36.526 20.187 0 36.569 16.368 36.598 36.554z" horiz-adv-x="549" />
<glyph unicode="&#xe613;" d="M321.248 163.864l99.19 0.029v73.83h-50.661c-7.079 0-13.13-3.728-16.322-10.040l-32.207-63.82zM530.117-36.46h-274.198c-40.375 0-73.119 32.745-73.119 73.12s32.744 73.119 73.119 73.119h38.3l-17.438 26.55c-3.7 5.615-4.077 12.274-1.045 18.279l54.303 107.62-50.762 56.406c-2.162 2.393-4.541 3.989-7.588 5.048l-217.284 75.411v-231.139l22.821-17.931 9.169 17.424 31.874-16.786c8.894-4.7 12.331-15.769 7.645-24.678l-12.999-24.721c-3.235-6.166-9.213-9.779-16.176-9.779-8.894 0-17.772 0-26.622 0-4.279 0-7.935 1.276-11.302 3.917l-51.822 40.752c-4.57 3.584-6.992 8.574-6.992 14.377v324.786l302.939-105.139c3.046-1.059 5.426-2.655 7.587-5.048l81.752-90.848h46.44c10.069 0 18.28-8.212 18.28-18.28v-36.546h146.239c10.068 0 18.28-8.212 18.28-18.279v-73.12c0-10.069-8.212-18.28-18.28-18.28h-73.12c40.375 0 73.12-32.744 73.12-73.119s-32.745-73.12-73.12-73.12zM530.117 0.099c20.181 0 36.56 16.38 36.56 36.56s-16.38 36.56-36.56 36.56h-274.198c-20.18 0-36.56-16.38-36.56-36.56s16.38-36.56 36.56-36.56h274.198z" horiz-adv-x="658" />
<glyph unicode="&#xe614;" d="M191.569 95.818l158.465 0.106c16.438-55.404 67.771-95.83 128.507-95.83 73.984 0 133.992 60.007 133.992 133.992 0 36.49-14.63 69.563-38.284 93.718v21.284c0 10.543-8.598 19.142-19.141 19.142h-19.141v95.708h19.141v19.127c0 10.543-8.598 19.142-19.141 19.142h-194.273c-10.543 0-19.142-8.599-19.142-19.142v-4.345l-54.569-145.522v-3.251h-37.417v133.992h-38.284v-133.992l-134.843 0.015c-10.528 0-19.157-8.613-19.157-19.141v-38.404c-23.213-17.471-38.283-45.226-38.283-76.521 0-52.897 42.901-95.8 95.784-95.8 52.868 0 95.739 42.856 95.784 95.724zM95.708 114.945c-10.573 0-19.142-8.569-19.142-19.142s8.569-19.142 19.142-19.142c10.573 0 19.142 8.569 19.142 19.142s-8.569 19.142-19.142 19.142zM382.832 134.086v0.151c0.076 52.761 42.916 95.556 95.709 95.556 52.837 0 95.708-42.871 95.708-95.708s-42.871-95.709-95.708-95.709c-52.837 0-95.709 42.871-95.709 95.709zM350.14 172.522h-43.873v50.71c0 2.4 0.38 4.466 1.231 6.715l50.239 133.991h63.38v-108.773c-33.954-16.134-60.038-46.107-70.976-82.643zM478.541 191.511c-31.721 0-57.425-25.704-57.425-57.425s25.704-57.425 57.425-57.425c31.721 0 57.425 25.705 57.425 57.425s-25.704 57.425-57.425 57.425zM459.399 363.938h38.284v-95.709h-38.284v95.709zM95.767 153.456c31.827 0 57.592-25.765 57.592-57.562 0-31.827-25.765-57.592-57.592-57.592-31.797 0-57.562 25.765-57.562 57.592 0 31.796 25.766 57.562 57.562 57.562z" horiz-adv-x="658" />
<glyph unicode="&#xe615;" d="M152.942 154.416h-95.079v19.273c0 10.624 8.665 19.288 19.288 19.288h84.010l41.638 93.67-202.801 60.635 16.38 54.925 209.889-62.748 6.965 15.66c3.168 7.119 9.827 11.451 17.619 11.451h154.198c9.154 0 16.87-6.2 18.844-15.14l16.716-76.050 138.828-41.485c9.874-2.939 15.66-13.15 13.196-23.13l-13.961-56.349h-117.658c-5.174 0-9.721-1.837-13.425-5.435l-48.221-46.75c-3.888-3.765-5.863-8.435-5.863-13.854v-11.129c0-10.624-8.664-19.288-19.288-19.288h-153.081c-10.624 0-19.288 8.664-19.288 19.288v13.456c0 3.98-1.025 7.394-3.23 10.7l-29.621 44.439c-3.69 5.526-9.415 8.572-16.058 8.572zM96.441 38.672c-21.294 0-38.577 17.283-38.577 38.576s17.283 38.577 38.577 38.577 38.576-17.283 38.576-38.577c0-21.293-17.283-38.576-38.577-38.576zM96.441 154.401c-42.602 0-77.153-34.55-77.153-77.153s34.55-77.152 77.153-77.152c42.602 0 77.153 34.55 77.153 77.153s-34.55 77.153-77.153 77.153zM501.492 38.672c-21.293 0-38.576 17.283-38.576 38.576s17.283 38.577 38.576 38.577c21.294 0 38.576-17.283 38.576-38.577s-17.283-38.576-38.577-38.576zM501.492 154.401c-42.602 0-77.152-34.55-77.152-77.153s34.55-77.152 77.153-77.152c42.602 0 77.153 34.55 77.153 77.153s-34.55 77.153-77.153 77.153zM211.743 212.265h116.157c0 38.561 0 77.168 0 115.729h-52.185c-7.792 0-14.451-4.332-17.62-11.451l-46.352-104.278zM366.476 212.265h48.542c-7.363 33.51-14.742 67.065-22.12 100.589-1.974 8.94-9.69 15.139-18.844 15.139h-7.577c0-38.561 0-77.168 0-115.729zM454.696 211.332l4.041-18.355h57.359l-61.401 18.355z" horiz-adv-x="658" />
<glyph unicode="&#xe616;" d="M253.545 54.954h187.359c8.117-31.524 36.741-54.825 70.796-54.825 34.080 0 62.72 23.335 70.812 54.896l39.015 0c1.57 0 2.909 0.165 4.432 0.546l72.923 18.231c8.242 2.060 13.843 9.233 13.843 17.729v237.476c0 10.065-8.21 18.275-18.275 18.275h-621.293c-6.736 0-12.644-3.539-15.823-9.089l-20.787-0.013c-7.578-0.005-14.431-3.065-19.371-8.005-4.939-4.939-8.001-11.79-8.003-19.367l-0.041-46.021h0.012c0.172-4.894 4.195-8.81 9.131-8.81s8.96 3.916 9.131 8.81h0v0.013c0.003 0.104 0.006 0.21 0.006 0.315 0 0.109-0.002 0.216-0.006 0.325l-0.030 45.369c0 2.483 1.042 4.767 2.721 6.445 1.68 1.68 3.966 2.722 6.45 2.722h15.883l-33.719-151.737c-0.304-1.368-0.436-2.563-0.436-3.964v-91.047c0-10.065 8.21-18.275 18.275-18.275h75.405c8.117-31.524 36.74-54.825 70.795-54.825s62.679 23.3 70.796 54.825zM511.7 36.679c-20.182 0-36.55 16.368-36.55 36.55s16.368 36.55 36.55 36.55c20.182 0 36.55-16.368 36.55-36.55s-16.368-36.55-36.55-36.55zM182.75 36.679c-20.182 0-36.549 16.368-36.549 36.55s16.368 36.55 36.549 36.55c20.182 0 36.55-16.368 36.55-36.55s-16.368-36.55-36.55-36.55zM676.178 201.154h-63.962v109.721h63.962v-109.721zM593.941 310.875v-109.721h-91.375v109.721h91.375zM484.29 310.875v-109.721h-91.375v109.721h91.375zM374.64 310.875v-109.721h-91.375v109.721h91.375zM264.99 310.875v-109.721h-87.685c9.005 17.026 13.673 36.528 13.673 57.433 0 16.703-2.995 34.32-9.15 52.289h83.162zM162.43 310.875c6.918-18.058 10.273-35.719 10.273-52.289 0-19.875-4.849-38.14-14.167-53.55-9.285-15.354-23.063-27.97-40.959-36.612-17.162-8.288-38.178-12.958-62.751-12.958v7.459l32.877 147.95h74.726z" horiz-adv-x="731" />
<glyph unicode="&#xe617;" d="M18.285 91.429q0 7.428 5.428 12.857t12.857 5.428v91.428q0 2.286-0.143 10t0 10.857 0.715 9.857 1.857 10.572 4 8.714 6.428 8.572l56.572 56.572q5.428 5.428 14.428 9.143t16.714 3.714h45.714v54.857q0 7.428 5.428 12.857t12.857 5.429h292.572q7.428 0 12.857-5.429t5.428-12.857v-292.572q0-4.286-1.143-7.572t-3.857-5.286-4.714-3.286-6.714-1.714-6.428-0.572-7.286 0-6.428 0.143q0-30.286-21.428-51.714t-51.714-21.428-51.714 21.428-21.428 51.714h-109.714q0-30.286-21.428-51.714t-51.714-21.428-51.715 21.428-21.428 51.714h-18.285q-0.857 0-6.428-0.143t-7.285 0-6.428 0.572-6.715 1.714-4.715 3.286-3.857 5.286-1.143 7.572zM73.143 219.429h109.715v73.143h-45.143q-3.714 0-6.286-2.571l-55.715-55.714q-2.572-2.572-2.572-6.286v-8.572zM109.715 73.143q0-14.857 10.857-25.714t25.715-10.857 25.714 10.857 10.857 25.714-10.857 25.714-25.714 10.857-25.715-10.857-10.857-25.714zM365.714 73.143q0-14.857 10.857-25.714t25.714-10.857 25.714 10.857 10.857 25.714-10.857 25.714-25.714 10.857-25.714-10.857-10.857-25.714z" />
<glyph unicode="&#xe618;" d="M0 0v365.714q0 14.857 10.857 25.714t25.715 10.857h36.572v27.429q0 18.857 13.428 32.286t32.285 13.428h18.285q18.857 0 32.286-13.428t13.428-32.286v-27.429h109.714v27.429q0 18.857 13.428 32.286t32.286 13.428h18.286q18.857 0 32.286-13.428t13.428-32.286v-27.429h36.572q14.857 0 25.714-10.857t10.857-25.714v-365.714q0-14.857-10.857-25.714t-25.714-10.857h-402.286q-14.857 0-25.715 10.857t-10.857 25.714zM36.572 0h82.285v82.286h-82.285v-82.286zM36.572 100.572h82.285v91.428h-82.285v-91.428zM36.572 210.286h82.285v82.286h-82.285v-82.286zM109.715 347.429q0-3.714 2.715-6.428t6.428-2.714h18.285q3.714 0 6.429 2.714t2.714 6.428v82.286q0 3.714-2.714 6.428t-6.428 2.714h-18.285q-3.715 0-6.428-2.714t-2.715-6.428v-82.286zM137.143 0h91.429v82.286h-91.428v-82.286zM137.143 100.572h91.429v91.428h-91.428v-91.428zM137.143 210.286h91.429v82.286h-91.428v-82.286zM246.857 0h91.429v82.286h-91.428v-82.286zM246.857 100.572h91.429v91.428h-91.428v-91.428zM246.857 210.286h91.429v82.286h-91.428v-82.286zM329.143 347.429q0-3.714 2.714-6.428t6.428-2.714h18.286q3.714 0 6.428 2.714t2.714 6.428v82.286q0 3.714-2.714 6.428t-6.428 2.714h-18.286q-3.714 0-6.428-2.714t-2.714-6.428v-82.286zM356.572 0h82.286v82.286h-82.286v-82.286zM356.572 100.572h82.286v91.428h-82.286v-91.428zM356.572 210.286h82.286v82.286h-82.286v-82.286z" horiz-adv-x="476" />
<glyph unicode="&#xe619;" d="M0 219.429q0 59.714 29.428 110.143t79.857 79.857 110.143 29.428 110.143-29.428 79.857-79.857 29.428-110.143-29.428-110.143-79.857-79.857-110.143-29.428-110.143 29.428-79.857 79.857-29.428 110.143zM64 219.429q0-42.286 20.857-78t56.571-56.572 78-20.857 78 20.857 56.572 56.572 20.857 78-20.857 78-56.572 56.572-78 20.857-78-20.857-56.572-56.572-20.857-78zM146.286 192v18.286q0 4 2.571 6.572t6.571 2.571h64v100.572q0 4 2.571 6.572t6.571 2.571h18.286q4 0 6.572-2.571t2.571-6.572v-128q0-4-2.571-6.572t-6.572-2.572h-91.428q-4 0-6.572 2.572t-2.571 6.572z" />
<glyph unicode="&#xe61a;" d="M4.572 54l219.428 402.286q4.857 8.857 13.428 14t18.572 5.143 18.572-5.143 13.428-14l219.428-402.286q10-18-0.572-36-4.857-8.286-13.286-13.143t-18.143-4.857h-438.857q-9.715 0-18.143 4.857t-13.286 13.143q-10.572 18-0.572 36zM214.857 320l4.857-130.571q0-2.857 2.857-4.714t6.857-1.857h52.857q4 0 6.714 1.857t3 4.714l5.143 131.143q0 3.429-2.857 5.429-3.714 3.143-6.857 3.143h-62.857q-3.143 0-6.857-3.143-2.857-2-2.857-6zM219.429 82.572q0-4 2.714-6.714t6.429-2.714h54.857q3.714 0 6.428 2.714t2.714 6.714v54.286q0 4-2.714 6.714t-6.428 2.714h-54.857q-3.714 0-6.429-2.714t-2.714-6.714v-54.286z" />
<glyph unicode="&#xe61b;" d="M0 54.857v73.143q0 7.428 5.428 12.857t12.857 5.428h475.428q7.428 0 12.857-5.428t5.428-12.857v-73.143q0-7.428-5.428-12.857t-12.857-5.428h-475.428q-7.428 0-12.857 5.428t-5.428 12.857zM0 201.143v73.143q0 7.429 5.428 12.857t12.857 5.428h475.428q7.428 0 12.857-5.428t5.428-12.857v-73.143q0-7.428-5.428-12.857t-12.857-5.428h-475.428q-7.428 0-12.857 5.428t-5.428 12.857zM0 347.429v73.143q0 7.429 5.428 12.857t12.857 5.428h475.428q7.428 0 12.857-5.428t5.428-12.857v-73.143q0-7.428-5.428-12.857t-12.857-5.428h-475.428q-7.428 0-12.857 5.428t-5.428 12.857zM182.857 219.429h292.572v36.572h-292.572v-36.572zM292.572 73.143h182.857v36.572h-182.857v-36.572zM365.714 365.714h109.714v36.572h-109.714v-36.572z" />
<glyph unicode="&#xe61c;" d="M0 82.286v310.857q0 18.857 13.428 32.285t32.285 13.429h420.572q18.857 0 32.286-13.429t13.428-32.285v-310.857q0-18.857-13.428-32.286t-32.286-13.428h-420.572q-18.857 0-32.285 13.428t-13.428 32.286zM36.572 82.286q0-3.714 2.715-6.428t6.428-2.714h420.572q3.714 0 6.428 2.714t2.714 6.428v237.714q0 3.714-2.714 6.428t-6.428 2.714h-420.572q-3.715 0-6.428-2.714t-2.715-6.428v-237.714zM73.143 118.857v18.286q0 3.714 2.715 6.428t6.428 2.714h18.285q3.715 0 6.428-2.714t2.715-6.428v-18.286q0-3.714-2.715-6.428t-6.428-2.714h-18.285q-3.715 0-6.428 2.714t-2.715 6.428zM73.143 192v18.286q0 3.714 2.715 6.428t6.428 2.714h18.285q3.715 0 6.428-2.714t2.715-6.428v-18.286q0-3.714-2.715-6.428t-6.428-2.714h-18.285q-3.715 0-6.428 2.714t-2.715 6.428zM73.143 265.143v18.286q0 3.714 2.715 6.428t6.428 2.714h18.285q3.715 0 6.428-2.714t2.715-6.428v-18.286q0-3.714-2.715-6.428t-6.428-2.714h-18.285q-3.715 0-6.428 2.714t-2.715 6.428zM146.286 118.857v18.286q0 3.714 2.714 6.428t6.428 2.714h274.286q3.714 0 6.428-2.714t2.714-6.428v-18.286q0-3.714-2.714-6.428t-6.428-2.714h-274.286q-3.714 0-6.428 2.714t-2.714 6.428zM146.286 192v18.286q0 3.714 2.714 6.428t6.428 2.714h274.286q3.714 0 6.428-2.714t2.714-6.428v-18.286q0-3.714-2.714-6.428t-6.428-2.714h-274.286q-3.714 0-6.428 2.714t-2.714 6.428zM146.286 265.143v18.286q0 3.714 2.714 6.428t6.428 2.714h274.286q3.714 0 6.428-2.714t2.714-6.428v-18.286q0-3.714-2.714-6.428t-6.428-2.714h-274.286q-3.714 0-6.428 2.714t-2.714 6.428z" />
<glyph unicode="&#xe61d;" d="M0 82.286v118.857q0 22.572 16.143 38.714t38.715 16.143h18.285v155.429q0 11.428 8 19.428t19.428 8h192q11.428 0 25.143-5.714t21.714-13.715l43.428-43.428q8-8 13.714-21.714t5.714-25.143v-73.143h18.286q22.572 0 38.714-16.143t16.143-38.714v-118.857q0-3.714-2.714-6.428t-6.428-2.714h-64v-45.714q0-11.428-8-19.428t-19.428-8h-274.286q-11.428 0-19.428 8t-8 19.428v45.714h-64q-3.715 0-6.428 2.714t-2.715 6.428zM109.715 36.572h256v73.143h-256v-73.143zM109.715 219.429h256v109.714h-45.714q-11.428 0-19.428 8t-8 19.428v45.714h-182.857v-182.857zM402.286 201.143q0-7.428 5.428-12.857t12.857-5.428 12.857 5.428 5.428 12.857-5.428 12.857-12.857 5.428-12.857-5.428-5.428-12.857z" horiz-adv-x="476" />
<glyph unicode="&#xe61e;" d="M14.286 57.429q0 15.428 7.428 33.143l119.143 298.286q2.286 5.428 7.429 9.428t10.857 4h96.857q-3.714 0-6.572-2.714t-3.143-6.428l-4.286-54.857q-0.286-4 2.286-6.572t6.286-2.572h47.429q3.714 0 6.286 2.572t2.286 6.572l-4.286 54.857q-0.286 3.714-3.143 6.429t-6.572 2.714h96.857q5.714 0 10.857-4t7.428-9.429l119.143-298.285q7.428-17.714 7.428-33.143 0-20.857-13.143-20.857h-201.143q3.714 0 6.286 2.714t2.286 6.428l-5.714 73.143q-0.286 3.714-3.143 6.428t-6.572 2.714h-77.714q-3.714 0-6.572-2.714t-3.143-6.428l-5.714-73.143q-0.286-3.714 2.286-6.428t6.286-2.714h-201.143q-13.143 0-13.143 20.857zM231.143 190.857q-0.286-3.428 2.286-5.714t6-2.286h69.715q3.428 0 6 2.286t2.286 5.714v1.143l-6.857 91.428q-0.286 3.714-3.143 6.428t-6.572 2.714h-53.143q-3.714 0-6.571-2.714t-3.143-6.428l-6.857-91.428v-1.143z" horiz-adv-x="549" />
<glyph unicode="&#xe61f;" d="M292.632 246.863h146.315v118.882h-146.315v-118.882zM20.398 109.691h199.076v53.716l-34.577 34.577c-5.952 5.95-5.952 15.6 0 21.551 5.951 5.952 15.601 5.952 21.551 0l13.026-13.026v95.948l-13.026-13.025c-5.951-5.953-15.6-5.953-21.551 0-5.951 5.949-5.951 15.6 0 21.55l34.577 34.578c0 12.825 0.002 25.652 0.071 38.476 0.081 15.169 6.133 28.885 16.022 38.774 9.888 9.888 23.602 15.956 38.77 16.020 6.803 0.029 13.601 0 20.404 0v21.408c0 8.394-6.846 15.242-15.241 15.242-49.32-0.001-98.745-0.081-148.126-0.067-4.698 0-9.138-1.023-13.091-2.894-1.445-0.682-2.867-1.507-4.249-2.465-1.371-0.946-2.635-1.978-3.782-3.083-4.034-3.891-7.002-8.879-8.43-14.593l-11.924-47.673c-0.472-1.885-0.745-3.602-0.855-5.43h-0.057l-13.622-4.954-11.095 30.513 3.582 1.301c3.945 1.432 5.996 5.82 4.561 9.764l-3.906 10.742c-1.433 3.945-5.819 5.994-9.763 4.56l-53.722-19.506c-3.945-1.433-5.995-5.822-4.561-9.763l3.907-10.739c1.433-3.948 5.819-5.997 9.764-4.564l3.581 1.3 11.103-30.537-13.621-4.954c-6.138-2.231-10.032-7.793-10.032-14.323v-233.183c0-8.395 6.845-15.241 15.24-15.241zM40.105 342.775c-5.952 5.951-5.952 15.6 0 21.553 5.952 5.952 15.602 5.952 21.552 0l53.343-53.346c5.954-5.951 5.954-15.601 0-21.55-5.949-5.954-15.6-5.954-21.55 0l-53.346 53.342zM61.657 144.639c-5.952-5.953-15.602-5.953-21.553 0-5.952 5.95-5.952 15.601 0 21.552l53.346 53.344c5.951 5.952 15.602 5.952 21.55 0 5.954-5.951 5.954-15.601 0-21.551l-53.343-53.344zM233.8 445.024l-36.818-36.82c-5.938-5.939-13.163-8.93-21.556-8.93h-55.511l11.434 45.721c0.008 0.032 0 0.043-0.010 0.047 0.013 0.003 0.024 0.008 0.034 0.007l102.428-0.026zM131.3 445.051c-0.011-0.008-0.021-0.011-0.002 0s0.017 0.010 0.008 0.001h-0.004l-0.002-0.001zM589.836 200.328c-4.553 1.142-8.576 3.725-11.632 7.531l-13.703 17.068c-1.616 2.014-2.823 4.152-3.633 6.453-0.811 2.305-1.21 4.72-1.21 7.283l0.014 80.277c-0 1.695-0.674 3.115-1.966 4.2l-35.139 29.487c-2.688 2.267-4.21 5.415-4.494 8.667-0.283 3.231 0.665 6.582 2.91 9.281l5.937 7.087c2.267 2.689 5.415 4.209 8.667 4.494 3.231 0.283 6.582-0.666 9.281-2.911l73.759-61.883c4.947-4.176 7.788-10.196 7.788-16.759v-100.957c0-21.994 7.971-35.808 15.332-48.567 8.644-14.981 16.674-28.901 16.674-50.533 0-9.88-1.936-19.724-5.485-28.946-5.158-13.399-13.759-25.25-24.821-33.774-11.554-8.904-25.663-14.291-41.289-14.291-8.348 0-17.188 1.61-26.355 5.139-56.482 21.74-52.331 75.321-48.591 123.596 0.747 9.654 1.552 19.377 1.552 29.067 0 16.618-3.394 28.945-19.618 28.945v-192.040h27.435c5.037 0 9.144-4.108 9.144-9.144v-36.579c0-5.036-4.109-9.145-9.145-9.145h-310.921c-5.036 0-9.144 4.108-9.144 9.144v36.579c0 5.036 4.108 9.144 9.144 9.144h27.434v365.789c0 20.147 16.432 36.579 36.579 36.579h182.894c20.147 0 36.579-16.432 36.579-36.579v-137.171c46.475 0 56.126-27.904 56.126-65.524 0-10.619-0.804-21.204-1.624-31.783-2.752-35.526-5.807-74.957 25.157-86.875 4.578-1.762 9.061-2.566 13.352-2.566 7.191 0 13.683 2.478 18.999 6.575 5.81 4.477 10.352 10.764 13.104 17.913 1.885 4.897 2.913 10.313 2.913 15.943 0 12.154-5.622 21.899-11.673 32.386-9.763 16.921-20.333 35.241-20.333 66.714v0.68z" horiz-adv-x="695" />
<glyph unicode="&#xe620;" d="M36.358 438.857c-20.143 0-36.572-16.428-36.572-36.572v-365.714c0-20.143 16.429-36.572 36.572-36.572h365.714c20.143-0 36.572 16.429 36.572 36.572v365.714c0 20.143-16.429 36.572-36.572 36.572h-365.714zM82.072 356.571c-5.036 0-9.143-4.107-9.143-9.143v-18.286c0-5.036 4.108-9.143 9.143-9.143h274.286c5.036 0 9.143 4.108 9.143 9.143v18.286c0 5.035-4.107 9.143-9.143 9.143h-274.286zM82.072 118.782c-5.036 0-9.143-4.108-9.143-9.143v-18.286c0-5.036 4.108-9.143 9.143-9.143h274.286c5.036 0 9.143 4.108 9.143 9.143v18.286c0 5.035-4.107 9.143-9.143 9.143h-274.286zM36.357 402.286h365.716v-365.716h-365.716v365.716zM147.363 206.105l19.631-6.216c-3.014-10.961-8.016-19.094-15.027-24.421-6.988-5.305-15.892-7.969-26.666-7.969-13.321 0-24.281 4.557-32.858 13.648-8.577 9.115-12.877 21.57-12.877 37.346 0 16.709 4.323 29.68 12.947 38.935 8.624 9.231 19.958 13.858 34.027 13.858 12.269 0 22.249-3.623 29.913-10.891 4.581-4.276 7.993-10.446 10.283-18.486l-20.075-4.791c-1.168 5.212-3.646 9.325-7.431 12.339-3.762 3.014-8.343 4.511-13.719 4.511-7.431 0-13.484-2.664-18.112-8.016-4.627-5.328-6.941-13.975-6.941-25.941 0-12.69 2.267-21.734 6.847-27.11 4.557-5.399 10.493-8.086 17.785-8.086 5.399 0 10.025 1.706 13.905 5.142 3.88 3.411 6.661 8.81 8.367 16.149zM274.916 169.203h-22.061l-8.763 22.81h-40.126l-8.273-22.81h-21.5l39.098 100.375h21.43l40.197-100.375zM237.595 208.909l-13.835 37.251-13.555-37.251h27.39zM285.853 169.203v100.375h19.727l41.083-67.025v67.025h18.836v-100.375h-20.354l-40.456 65.46v-65.46z" horiz-adv-x="475" />
<glyph unicode="&#xe621;" d="M475.429 54.857l-82.286 54.857v-27.428h-310.856v274.286h27.428l-54.858 82.286-54.857-82.286h27.428v-310.856c-0-10.072 8.215-18.286 18.286-18.286h347.429v-27.428l82.286 54.858zM115.413 206.5l25.178-10.714 40.685 94.93 28.334-85.001h20.768l43.22-64.831 54.279 72.373 44.392-73.988 23.464 14.036-65.322 108.869-55.435-73.913-29.922 44.883h-15.804l-44.809 134.428-69.031-161.070z" />
<glyph unicode="&#xe622;" d="M475.429 54.857l-82.286 54.857v-27.428h-310.856v274.286h27.428l-54.858 82.286-54.857-82.286h27.428v-310.856c-0-10.072 8.215-18.286 18.286-18.286h347.429v-27.428l82.286 54.858zM453.697 308.302v130.555h-20.221c-2.815-7.931-8.052-14.862-15.68-20.826-7.628-5.933-14.711-9.959-21.189-12.078v-22.612c12.35 4.056 23.065 10.352 32.177 18.888v-93.928h24.913zM115.412 206.5l25.179-10.714 40.685 94.93 28.334-85.001h20.768l43.22-64.831 54.279 72.373 44.392-73.988 23.464 14.036-65.322 108.869-55.435-73.913-29.922 44.883h-15.804l-44.809 134.428-69.031-161.070z" />
<glyph unicode="&#xe623;" d="M475.429 54.857l-82.286 54.857v-27.428h-310.856v274.286h27.428l-54.858 82.286-54.857-82.286h27.428v-310.856c-0-10.072 8.215-18.286 18.286-18.286h347.429v-27.428l82.286 54.858zM474.099 331.459h-49.492c1.301 2.24 3.027 4.541 5.115 6.902s7.083 7.174 14.954 14.378c7.84 7.205 13.288 12.744 16.315 16.588 4.541 5.781 7.87 11.321 9.959 16.618s3.148 10.867 3.148 16.709c0 10.292-3.663 18.889-10.988 25.82-7.325 6.901-17.405 10.382-30.24 10.382-11.714 0-21.462-2.997-29.271-8.96-7.81-5.993-12.442-15.832-13.925-29.543l24.822-2.482c0.484 7.265 2.271 12.471 5.327 15.619 3.087 3.118 7.204 4.692 12.411 4.692 5.267 0 9.384-1.483 12.38-4.48s4.48-7.265 4.48-12.805c0-5.024-1.726-10.11-5.146-15.256-2.543-3.723-9.414-10.837-20.675-21.28-13.924-12.956-23.277-23.339-28-31.179-4.752-7.84-7.567-16.134-8.536-24.882h87.36v23.156zM115.413 206.5l25.178-10.714 40.685 94.93 28.334-85.001h20.768l43.22-64.831 54.279 72.373 44.392-73.988 23.464 14.036-65.322 108.869-55.435-73.913-29.922 44.883h-15.804l-44.809 134.428-69.031-161.070z" />
<glyph unicode="&#xe624;" d="M475.429 54.857l-82.286 54.857v-27.428h-310.856v274.286h27.428l-54.858 82.286-54.857-82.286h27.428v-310.856c-0-10.072 8.215-18.286 18.286-18.286h347.429v-27.428l82.286 54.858zM389.069 342.81c1.241-10.958 5.721-19.797 13.471-26.577 7.749-6.75 17.496-10.14 29.271-10.14 12.411 0 22.793 4.026 31.118 12.048 8.325 8.052 12.502 17.768 12.502 29.18 0 7.87-2.24 14.59-6.69 20.13-4.48 5.57-10.413 9.142-17.86 10.746 12.471 6.781 18.707 15.892 18.707 27.303 0 8.052-3.058 15.257-9.142 21.644-7.386 7.81-17.193 11.714-29.453 11.714-7.144 0-13.591-1.362-19.373-4.056-5.752-2.694-10.262-6.387-13.471-11.079-3.239-4.692-5.63-10.988-7.235-18.858l22.975-3.875c0.636 5.661 2.483 9.989 5.51 12.925 2.997 2.966 6.629 4.45 10.897 4.45 4.298 0 7.779-1.301 10.382-3.905s3.904-6.084 3.904-10.474c0-5.146-1.786-9.263-5.327-12.38-3.541-3.088-8.688-4.541-15.438-4.389l-2.755-20.281c4.45 1.241 8.264 1.846 11.442 1.846 4.843 0 8.96-1.816 12.32-5.509 3.39-3.662 5.055-8.627 5.055-14.893 0-6.629-1.756-11.865-5.267-15.771s-7.84-5.873-12.986-5.873c-4.783 0-8.87 1.635-12.229 4.904-3.39 3.239-5.449 7.93-6.236 14.076l-24.095-2.906zM115.412 206.499l25.179-10.714 40.685 94.93 28.334-85.001h20.768l43.22-64.831 54.279 72.373 44.392-73.988 23.464 14.036-65.322 108.869-55.435-73.913-29.922 44.883h-15.804l-44.809 134.428-69.031-161.070z" />
<glyph unicode="&#xe625;" d="M91.215 283.428h146.286v118.857h-146.286v-118.857zM388.358 236.902c-4.553 1.142-8.574 3.724-11.63 7.529l-13.701 17.065c-1.616 2.013-2.822 4.151-3.632 6.452-0.81 2.305-1.209 4.72-1.209 7.282l0.014 80.26c-0 1.695-0.675 3.115-1.966 4.198l-35.132 29.482c-2.688 2.267-4.209 5.414-4.493 8.666-0.283 3.231 0.666 6.58 2.91 9.279l5.935 7.085c2.267 2.688 5.414 4.209 8.666 4.493 3.231 0.283 6.58-0.665 9.279-2.91l73.743-61.87c4.947-4.175 7.786-10.194 7.786-16.755v-100.937c0-21.989 7.969-35.801 15.329-48.557 8.642-14.978 16.671-28.896 16.671-50.522 0-9.877-1.935-19.719-5.483-28.94-5.156-13.396-13.757-25.245-24.815-33.767-11.552-8.902-25.658-14.288-41.281-14.288-8.346 0-17.184 1.61-26.349 5.137-56.471 21.735-52.32 75.305-48.582 123.571 0.748 9.651 1.551 19.373 1.551 29.062 0 16.615-3.393 28.939-19.614 28.939v-192h27.429c5.036 0 9.143-4.108 9.143-9.143v-36.572c0-5.036-4.108-9.143-9.143-9.143h-310.859c-5.035 0-9.143 4.107-9.143 9.143v36.572c0 5.036 4.107 9.143 9.143 9.143h27.428v365.716c0 20.143 16.428 36.572 36.572 36.572h182.857c20.143 0 36.571-16.429 36.571-36.572v-137.143c46.466 0 56.115-27.898 56.115-65.51 0-10.616-0.804-21.2-1.623-31.776-2.752-35.519-5.805-74.942 25.152-86.857 4.577-1.762 9.059-2.565 13.349-2.565 7.189 0 13.68 2.478 18.995 6.573 5.809 4.476 10.351 10.762 13.101 17.909 1.884 4.896 2.912 10.31 2.912 15.94 0 12.151-5.622 21.894-11.671 32.38-9.761 16.918-20.329 35.233-20.329 66.7v0.68z" horiz-adv-x="475" />
<glyph unicode="&#xe626;" d="M91.215 283.428h146.286v118.857h-146.286v-118.857zM189.224 104.969v130.555h-20.221c-2.815-7.931-8.052-14.863-15.68-20.826-7.628-5.933-14.711-9.959-21.189-12.077v-22.612c12.35 4.056 23.066 10.353 32.177 18.889v-93.928h24.912zM388.357 236.902c-4.553 1.142-8.574 3.724-11.63 7.529l-13.701 17.065c-1.616 2.013-2.822 4.151-3.632 6.452-0.81 2.305-1.209 4.72-1.209 7.282l0.014 80.26c-0 1.695-0.675 3.115-1.966 4.198l-35.132 29.482c-2.688 2.267-4.209 5.414-4.493 8.666-0.283 3.231 0.666 6.58 2.91 9.279l5.935 7.085c2.267 2.688 5.414 4.209 8.666 4.493 3.231 0.283 6.58-0.665 9.279-2.91l73.743-61.87c4.947-4.175 7.786-10.194 7.786-16.755v-100.937c0-21.989 7.969-35.801 15.329-48.557 8.642-14.978 16.671-28.896 16.671-50.522 0-9.877-1.935-19.719-5.483-28.94-5.156-13.396-13.757-25.245-24.815-33.767-11.552-8.902-25.658-14.288-41.281-14.288-8.346 0-17.184 1.61-26.349 5.137-56.471 21.735-52.32 75.305-48.582 123.571 0.748 9.651 1.551 19.373 1.551 29.062 0 16.615-3.393 28.939-19.614 28.939v-192h27.429c5.036 0 9.143-4.108 9.143-9.143v-36.572c0-5.036-4.108-9.143-9.143-9.143h-310.859c-5.035 0-9.143 4.107-9.143 9.143v36.572c0 5.036 4.107 9.143 9.143 9.143h27.428v365.716c0 20.143 16.428 36.572 36.572 36.572h182.857c20.143 0 36.571-16.429 36.571-36.572v-137.143c46.466 0 56.115-27.898 56.115-65.51 0-10.616-0.804-21.2-1.623-31.776-2.752-35.519-5.805-74.942 25.152-86.857 4.577-1.762 9.059-2.565 13.349-2.565 7.189 0 13.68 2.478 18.995 6.573 5.809 4.476 10.351 10.762 13.101 17.909 1.884 4.896 2.912 10.31 2.912 15.94 0 12.151-5.622 21.894-11.671 32.38-9.761 16.918-20.329 35.233-20.329 66.7v0.68z" horiz-adv-x="475" />
<glyph unicode="&#xe627;" d="M91.215 283.428h146.286v118.857h-146.286v-118.857zM209.626 128.126h-49.492c1.302 2.24 3.027 4.541 5.115 6.902s7.083 7.174 14.953 14.378c7.84 7.204 13.288 12.744 16.316 16.588 4.541 5.781 7.87 11.321 9.959 16.618s3.148 10.867 3.148 16.709c0 10.292-3.662 18.889-10.988 25.82-7.325 6.901-17.405 10.382-30.24 10.382-11.714 0-21.462-2.996-29.271-8.96-7.81-5.994-12.442-15.832-13.924-29.543l24.822-2.483c0.484 7.265 2.27 12.471 5.327 15.62 3.088 3.118 7.204 4.692 12.411 4.692 5.267 0 9.384-1.483 12.381-4.48s4.48-7.265 4.48-12.805c0-5.024-1.726-10.11-5.146-15.256-2.543-3.723-9.414-10.837-20.674-21.28-13.924-12.956-23.278-23.339-28-31.178-4.752-7.84-7.567-16.134-8.536-24.882h87.36v23.156zM388.358 236.902c-4.553 1.142-8.574 3.724-11.63 7.529l-13.701 17.065c-1.616 2.013-2.822 4.151-3.632 6.452-0.81 2.305-1.209 4.72-1.209 7.282l0.014 80.26c-0 1.695-0.675 3.115-1.966 4.198l-35.132 29.482c-2.688 2.267-4.209 5.414-4.493 8.666-0.283 3.231 0.666 6.58 2.91 9.279l5.935 7.085c2.267 2.688 5.414 4.209 8.666 4.493 3.231 0.283 6.58-0.665 9.279-2.91l73.743-61.87c4.947-4.175 7.786-10.194 7.786-16.755v-100.937c0-21.989 7.969-35.801 15.329-48.557 8.642-14.978 16.671-28.896 16.671-50.522 0-9.877-1.935-19.719-5.483-28.94-5.156-13.396-13.757-25.245-24.815-33.767-11.552-8.902-25.658-14.288-41.281-14.288-8.346 0-17.184 1.61-26.349 5.137-56.471 21.735-52.32 75.305-48.582 123.571 0.748 9.651 1.551 19.373 1.551 29.062 0 16.615-3.393 28.939-19.614 28.939v-192h27.429c5.036 0 9.143-4.108 9.143-9.143v-36.572c0-5.036-4.108-9.143-9.143-9.143h-310.859c-5.035 0-9.143 4.107-9.143 9.143v36.572c0 5.036 4.107 9.143 9.143 9.143h27.428v365.716c0 20.143 16.428 36.572 36.572 36.572h182.857c20.143 0 36.571-16.429 36.571-36.572v-137.143c46.466 0 56.115-27.898 56.115-65.51 0-10.616-0.804-21.2-1.623-31.776-2.752-35.519-5.805-74.942 25.152-86.857 4.577-1.762 9.059-2.565 13.349-2.565 7.189 0 13.68 2.478 18.995 6.573 5.809 4.476 10.351 10.762 13.101 17.909 1.884 4.896 2.912 10.31 2.912 15.94 0 12.151-5.622 21.894-11.671 32.38-9.761 16.918-20.329 35.233-20.329 66.7v0.68z" horiz-adv-x="475" />
<glyph unicode="&#xe628;" d="M91.215 283.428h146.286v118.857h-146.286v-118.857zM124.597 139.477c1.242-10.958 5.722-19.797 13.471-26.577 7.749-6.75 17.496-10.14 29.271-10.14 12.411 0 22.793 4.026 31.118 12.048 8.325 8.052 12.501 17.769 12.501 29.18 0 7.87-2.24 14.59-6.69 20.13-4.48 5.57-10.413 9.142-17.859 10.746 12.471 6.781 18.707 15.892 18.707 27.303 0 8.052-3.058 15.257-9.142 21.643-7.386 7.81-17.194 11.714-29.453 11.714-7.143 0-13.591-1.363-19.373-4.056-5.751-2.694-10.262-6.387-13.47-11.079-3.239-4.692-5.63-10.988-7.234-18.858l22.975-3.875c0.636 5.661 2.482 9.989 5.51 12.925 2.996 2.966 6.629 4.45 10.897 4.45 4.298 0 7.78-1.301 10.382-3.905s3.905-6.084 3.905-10.474c0-5.146-1.786-9.263-5.327-12.38-3.542-3.087-8.688-4.541-15.438-4.389l-2.755-20.281c4.45 1.241 8.263 1.846 11.442 1.846 4.843 0 8.96-1.816 12.32-5.509 3.391-3.663 5.055-8.627 5.055-14.893 0-6.629-1.756-11.865-5.267-15.771s-7.84-5.873-12.986-5.873c-4.783 0-8.869 1.635-12.229 4.904-3.391 3.239-5.449 7.93-6.236 14.075l-24.095-2.906zM388.358 236.902c-4.553 1.142-8.574 3.724-11.63 7.529l-13.701 17.065c-1.616 2.013-2.822 4.151-3.632 6.452-0.81 2.305-1.209 4.72-1.209 7.282l0.014 80.26c-0 1.695-0.675 3.115-1.966 4.198l-35.132 29.482c-2.688 2.267-4.209 5.414-4.493 8.666-0.283 3.231 0.666 6.58 2.91 9.279l5.935 7.085c2.267 2.688 5.414 4.209 8.666 4.493 3.231 0.283 6.58-0.665 9.279-2.91l73.743-61.87c4.947-4.175 7.786-10.194 7.786-16.755v-100.937c0-21.989 7.969-35.801 15.329-48.557 8.642-14.978 16.671-28.896 16.671-50.522 0-9.877-1.935-19.719-5.483-28.94-5.156-13.396-13.757-25.245-24.815-33.767-11.552-8.902-25.658-14.288-41.281-14.288-8.346 0-17.184 1.61-26.349 5.137-56.471 21.735-52.32 75.305-48.582 123.571 0.748 9.651 1.551 19.373 1.551 29.062 0 16.615-3.393 28.939-19.614 28.939v-192h27.429c5.036 0 9.143-4.108 9.143-9.143v-36.572c0-5.036-4.108-9.143-9.143-9.143h-310.859c-5.035 0-9.143 4.107-9.143 9.143v36.572c0 5.036 4.107 9.143 9.143 9.143h27.428v365.716c0 20.143 16.428 36.572 36.572 36.572h182.857c20.143 0 36.571-16.429 36.571-36.572v-137.143c46.466 0 56.115-27.898 56.115-65.51 0-10.616-0.804-21.2-1.623-31.776-2.752-35.519-5.805-74.942 25.152-86.857 4.577-1.762 9.059-2.565 13.349-2.565 7.189 0 13.68 2.478 18.995 6.573 5.809 4.476 10.351 10.762 13.101 17.909 1.884 4.896 2.912 10.31 2.912 15.94 0 12.151-5.622 21.894-11.671 32.38-9.761 16.918-20.329 35.233-20.329 66.7v0.68z" horiz-adv-x="475" />
<glyph unicode="&#xe629;" d="M36.429-0.001h310.856c10.072 0 18.286 8.214 18.286 18.286v402.286c0 10.072-8.214 18.286-18.286 18.286-59.173-0.001-118.469-0.097-177.714-0.082-5.637 0.001-10.965-1.228-15.706-3.471-1.733-0.821-3.439-1.81-5.1-2.958-1.644-1.136-3.162-2.374-4.537-3.7-4.839-4.666-8.403-10.651-10.115-17.505l-14.305-57.2c-0.566-2.26-0.894-4.319-1.025-6.513h-0.067l-16.344-5.942-13.311 36.608 4.297 1.561c4.733 1.719 7.194 6.982 5.473 11.714l-4.688 12.888c-1.721 4.733-6.981 7.192-11.715 5.473l-64.451-23.404c-4.733-1.719-7.194-6.982-5.473-11.715l4.686-12.886c1.721-4.732 6.982-7.192 11.715-5.473l4.295 1.56 13.321-36.636-16.343-5.943c-7.363-2.677-12.037-9.35-12.037-17.185v-279.762c0-10.072 8.215-18.286 18.285-18.286zM60.071 279.641c-7.14 7.14-7.14 18.717 0 25.858s18.717 7.14 25.858 0l64.001-64c7.14-7.14 7.14-18.717 0-25.858s-18.717-7.14-25.858 0l-64.001 64zM85.929 41.927c-7.14-7.14-18.717-7.14-25.858 0s-7.14 18.717 0 25.858l64 64c7.14 7.14 18.717 7.14 25.858 0s7.14-18.717 0-25.858l-64-64zM259.643 215.642c-7.14-7.14-18.717-7.14-25.858 0s-7.14 18.717 0 25.858l64 64c7.14 7.14 18.717 7.14 25.858 0s7.14-18.717 0-25.858l-64-64zM233.786 105.927c-7.14 7.14-7.14 18.717 0 25.858s18.717 7.14 25.858 0l64-64c7.14-7.14 7.14-18.717 0-25.858s-18.717-7.14-25.858 0l-64 64zM292.458 402.313l-44.175-44.176c-7.122-7.121-15.789-10.712-25.861-10.712l-66.601 0 13.72 54.856c0.010 0.038 0 0.050-0.012 0.055 0.017 0.005 0.030 0.007 0.042 0.007l122.887-0.031zM169.485 402.344c-0.015-0.009-0.025-0.014-0.005-0s0.019 0.012 0.009 0.004l-0.002-0.002-0.003-0.002z" horiz-adv-x="402" />
<glyph unicode="&#xe62a;" d="M24.331 0.002h310.856c10.072-0 18.286 8.214 18.286 18.286v402.286c0 10.072-8.214 18.286-18.286 18.285-59.172 0-118.469-0.096-177.714-0.081-5.637 0.001-10.965-1.228-15.707-3.471-1.733-0.821-3.439-1.81-5.099-2.959-1.644-1.136-3.162-2.374-4.537-3.7-4.839-4.666-8.403-10.651-10.115-17.506l-14.305-57.2c-0.566-2.26-0.894-4.32-1.025-6.513l-16.41-5.943-13.311 36.608 4.297 1.56c4.733 1.719 7.194 6.982 5.473 11.714l-4.688 12.888c-1.721 4.732-6.981 7.192-11.715 5.473l-64.451-23.403c-4.733-1.719-7.194-6.983-5.473-11.715l4.686-12.885c1.721-4.733 6.982-7.192 11.715-5.473l4.296 1.56 13.321-36.635-16.343-5.943c-7.364-2.677-12.037-9.35-12.037-17.185v-279.763c0-10.072 8.214-18.286 18.285-18.286zM204.738 109.543h-24.912v93.928c-9.112-8.536-19.827-14.832-32.177-18.889v22.611c6.478 2.119 13.561 6.144 21.189 12.077 7.628 5.964 12.864 12.895 15.68 20.826h20.22v-130.555zM47.972 279.644c-7.14 7.14-7.14 18.717 0 25.858s18.717 7.14 25.858 0l45.715-45.714c7.14-7.14 7.14-18.717 0-25.858s-18.717-7.14-25.858 0l-45.715 45.714zM73.831 41.93c-7.14-7.14-18.717-7.14-25.858 0s-7.14 18.717 0 25.858l45.714 45.714c7.14 7.14 18.717 7.14 25.858 0s7.14-18.717 0-25.858l-45.714-45.714zM265.83 233.93c-7.14-7.14-18.717-7.14-25.858 0s-7.14 18.717 0 25.858l45.714 45.714c7.14 7.14 18.717 7.14 25.858 0s7.14-18.717 0-25.858l-45.714-45.714zM239.972 87.644c-7.14 7.14-7.14 18.717 0 25.858s18.717 7.14 25.857 0l45.714-45.714c7.14-7.14 7.14-18.717 0-25.858s-18.717-7.14-25.858 0l-45.714 45.714zM280.36 402.318l-44.175-44.176c-7.121-7.121-15.788-10.712-25.86-10.712h-66.601l13.72 54.856c0.010 0.038 0 0.050-0.012 0.055 0.017 0.005 0.030 0.007 0.042 0.007l122.887-0.031zM157.387 402.349c-0.015-0.009-0.025-0.014-0.005-0s0.020 0.012 0.010 0.004l-0.002-0.002-0.003-0.002z" horiz-adv-x="402" />
<glyph unicode="&#xe62b;" d="M24.331 0.002h310.856c10.072-0 18.286 8.214 18.286 18.286v402.286c0 10.072-8.214 18.286-18.286 18.285-59.172 0-118.469-0.096-177.714-0.081-5.637 0.001-10.965-1.228-15.707-3.471-1.733-0.821-3.439-1.81-5.099-2.959-1.644-1.136-3.162-2.374-4.537-3.7-4.839-4.666-8.403-10.651-10.115-17.506l-14.305-57.2c-0.566-2.26-0.894-4.32-1.025-6.513l-16.41-5.943-13.311 36.608 4.297 1.56c4.733 1.719 7.194 6.982 5.473 11.714l-4.688 12.888c-1.721 4.732-6.981 7.192-11.715 5.473l-64.451-23.403c-4.733-1.719-7.194-6.983-5.473-11.715l4.686-12.885c1.721-4.733 6.982-7.192 11.715-5.473l4.296 1.56 13.321-36.635-16.343-5.943c-7.364-2.677-12.037-9.35-12.037-17.185v-279.763c0-10.072 8.214-18.286 18.285-18.286zM225.141 132.699v-23.156h-87.359c0.969 8.748 3.784 17.043 8.536 24.882 4.722 7.84 14.076 18.223 28 31.178 11.261 10.444 18.132 17.557 20.674 21.28 3.421 5.146 5.146 10.231 5.146 15.256 0 5.539-1.483 9.808-4.48 12.805s-7.113 4.48-12.381 4.48c-5.207 0-9.323-1.574-12.411-4.692-3.057-3.148-4.843-8.354-5.327-15.62l-24.822 2.483c1.483 13.712 6.114 23.55 13.924 29.543 7.809 5.964 17.556 8.96 29.271 8.96 12.834 0 22.915-3.481 30.24-10.382 7.326-6.931 10.988-15.528 10.988-25.82 0-5.842-1.060-11.411-3.148-16.709s-5.418-10.837-9.959-16.618c-3.027-3.844-8.476-9.384-16.316-16.588-7.87-7.204-12.865-12.017-14.953-14.378s-3.814-4.662-5.115-6.902h49.492zM47.972 279.644c-7.14 7.14-7.14 18.717 0 25.858s18.717 7.14 25.858 0l45.715-45.714c7.14-7.14 7.14-18.717 0-25.858s-18.717-7.14-25.858 0l-45.715 45.714zM73.831 41.93c-7.14-7.14-18.717-7.14-25.858 0s-7.14 18.717 0 25.858l45.714 45.714c7.14 7.14 18.717 7.14 25.858 0s7.14-18.717 0-25.858l-45.714-45.714zM265.83 233.93c-7.14-7.14-18.717-7.14-25.858 0s-7.14 18.717 0 25.858l45.714 45.714c7.14 7.14 18.717 7.14 25.858 0s7.14-18.717 0-25.858l-45.714-45.714zM239.972 87.644c-7.14 7.14-7.14 18.717 0 25.858s18.717 7.14 25.857 0l45.714-45.714c7.14-7.14 7.14-18.717 0-25.858s-18.717-7.14-25.858 0l-45.714 45.714zM280.36 402.318l-44.175-44.176c-7.121-7.121-15.788-10.712-25.86-10.712h-66.601l13.72 54.856c0.010 0.038 0 0.050-0.012 0.055 0.017 0.005 0.030 0.007 0.042 0.007l122.887-0.031zM157.387 402.349c-0.015-0.009-0.025-0.014-0.005-0s0.020 0.012 0.010 0.004l-0.002-0.002-0.003-0.002z" horiz-adv-x="402" />
<glyph unicode="&#xe62c;" d="M24.331 0.002h310.856c10.072-0 18.286 8.214 18.286 18.286v402.286c0 10.072-8.214 18.286-18.286 18.285-59.172 0-118.469-0.096-177.714-0.081-5.637 0.001-10.965-1.228-15.707-3.471-1.733-0.821-3.439-1.81-5.099-2.959-1.644-1.136-3.162-2.374-4.537-3.7-4.839-4.666-8.403-10.651-10.115-17.506l-14.305-57.2c-0.566-2.26-0.894-4.32-1.025-6.513l-16.41-5.943-13.311 36.608 4.297 1.56c4.733 1.719 7.194 6.982 5.473 11.714l-4.688 12.888c-1.721 4.732-6.981 7.192-11.715 5.473l-64.451-23.403c-4.733-1.719-7.194-6.983-5.473-11.715l4.686-12.885c1.721-4.733 6.982-7.192 11.715-5.473l4.296 1.56 13.321-36.635-16.343-5.943c-7.364-2.677-12.037-9.35-12.037-17.185v-279.763c0-10.072 8.214-18.286 18.285-18.286zM140.112 144.051l24.095 2.906c0.787-6.145 2.845-10.837 6.236-14.075 3.36-3.269 7.447-4.904 12.229-4.904 5.146 0 9.475 1.967 12.986 5.873s5.267 9.142 5.267 15.771c0 6.266-1.665 11.231-5.055 14.893-3.36 3.693-7.476 5.509-12.32 5.509-3.179 0-6.993-0.606-11.442-1.846l2.755 20.281c6.75-0.151 11.897 1.301 15.438 4.389 3.542 3.118 5.327 7.235 5.327 12.38 0 4.389-1.302 7.87-3.905 10.474s-6.084 3.905-10.382 3.905c-4.268 0-7.9-1.483-10.897-4.449-3.027-2.937-4.874-7.265-5.51-12.925l-22.975 3.875c1.605 7.87 3.996 14.166 7.234 18.858 3.209 4.691 7.719 8.385 13.47 11.079 5.781 2.694 12.229 4.056 19.373 4.056 12.26 0 22.067-3.904 29.453-11.714 6.084-6.387 9.142-13.591 9.142-21.643 0-11.411-6.236-20.523-18.707-27.303 7.446-1.604 13.38-5.176 17.859-10.746 4.45-5.539 6.69-12.26 6.69-20.13 0-11.412-4.177-21.129-12.501-29.18-8.325-8.022-18.707-12.048-31.118-12.048-11.775 0-21.522 3.39-29.271 10.14-7.749 6.781-12.229 15.62-13.47 26.577zM47.972 279.644c-7.14 7.14-7.14 18.717 0 25.858s18.717 7.14 25.858 0l45.715-45.714c7.14-7.14 7.14-18.717 0-25.858s-18.717-7.14-25.858 0l-45.715 45.714zM73.831 41.93c-7.14-7.14-18.717-7.14-25.858 0s-7.14 18.717 0 25.858l45.714 45.714c7.14 7.14 18.717 7.14 25.858 0s7.14-18.717 0-25.858l-45.714-45.714zM265.83 233.93c-7.14-7.14-18.717-7.14-25.858 0s-7.14 18.717 0 25.858l45.714 45.714c7.14 7.14 18.717 7.14 25.858 0s7.14-18.717 0-25.858l-45.714-45.714zM239.972 87.644c-7.14 7.14-7.14 18.717 0 25.858s18.717 7.14 25.857 0l45.714-45.714c7.14-7.14 7.14-18.717 0-25.858s-18.717-7.14-25.858 0l-45.714 45.714zM280.36 402.318l-44.175-44.176c-7.121-7.121-15.788-10.712-25.86-10.712h-66.601l13.72 54.856c0.010 0.038 0 0.050-0.012 0.055 0.017 0.005 0.030 0.007 0.042 0.007l122.887-0.031zM157.387 402.349c-0.015-0.009-0.025-0.014-0.005-0s0.020 0.012 0.010 0.004l-0.002-0.002-0.003-0.002z" horiz-adv-x="402" />
</font>
</defs>
</svg>
